<svg width="1440" height="3213" viewBox="0 0 1440 3213" fill="none" xmlns="http://www.w3.org/2000/svg">
<g clip-path="url(#clip0_1345:147)">
<rect x="847.207" y="-259.627" width="270" height="1513.89" transform="rotate(45 847.207 -259.627)" fill="url(#paint0_linear_1345:147)"/>
<rect x="1564.5" y="-234.018" width="1256.7" height="1379.56" rx="284" transform="rotate(45 1564.5 -234.018)" fill="url(#paint1_linear_1345:147)"/>
<rect x="2062.5" y="-484" width="213.111" height="1379.56" rx="106.556" transform="rotate(45 2062.5 -484)" fill="url(#paint2_linear_1345:147)"/>
<rect x="1937.5" y="27" width="49.1651" height="1379.56" rx="24.5826" transform="rotate(45 1937.5 27)" fill="url(#paint3_linear_1345:147)"/>
<rect x="1937.5" y="1577" width="49.1651" height="1379.56" rx="24.5826" transform="rotate(45 1937.5 1577)" fill="url(#paint4_linear_1345:147)"/>
<rect x="2186.5" y="-97" width="49.1651" height="1379.56" rx="24.5826" transform="rotate(45 2186.5 -97)" fill="url(#paint5_linear_1345:147)"/>
<rect x="2186.5" y="1453" width="49.1651" height="1379.56" rx="24.5826" transform="rotate(45 2186.5 1453)" fill="url(#paint6_linear_1345:147)"/>
<rect x="343.74" y="472" width="198.434" height="1112.62" rx="99.217" transform="rotate(45 343.74 472)" fill="url(#paint7_linear_1345:147)"/>
<circle cx="39.4995" cy="78.5" r="200.75" stroke="#2E3B8D" stroke-width="1.5"/>
<circle cx="319" cy="859" r="19" fill="url(#paint8_linear_1345:147)" fill-opacity="0.2"/>
<circle cx="357" cy="821" r="19" fill="url(#paint9_linear_1345:147)" fill-opacity="0.2"/>
<circle cx="395" cy="783" r="19" fill="url(#paint10_linear_1345:147)" fill-opacity="0.2"/>
<circle cx="342.5" cy="615.5" r="67.75" stroke="#234186" stroke-width="1.5"/>
<circle cx="329" cy="1454" r="104" fill="url(#paint11_linear_1345:147)" fill-opacity="0.2"/>
<rect x="2023.48" y="729" width="270" height="3020.27" transform="rotate(45 2023.48 729)" fill="url(#paint12_linear_1345:147)"/>
<rect x="-686.235" y="2620.26" width="213.111" height="1379.56" rx="106.556" transform="rotate(-135 -686.235 2620.26)" fill="url(#paint13_linear_1345:147)"/>
<rect x="-561.235" y="2109.26" width="49.1651" height="1379.56" rx="24.5826" transform="rotate(-135 -561.235 2109.26)" fill="url(#paint14_linear_1345:147)"/>
<rect x="-810.235" y="2233.26" width="49.1651" height="1379.56" rx="24.5826" transform="rotate(-135 -810.235 2233.26)" fill="url(#paint15_linear_1345:147)"/>
<path d="M0 2750.27C0 2750.27 425.684 2487 720 2487C1014.32 2487 1440 2750.27 1440 2750.27V3213H0V2750.27Z" fill="url(#paint16_linear_1345:147)"/>
</g>
<defs>
<linearGradient id="paint0_linear_1345:147" x1="938.721" y1="-201.762" x2="982.207" y2="1254.26" gradientUnits="userSpaceOnUse">
<stop stop-color="#222C6B"/>
<stop offset="0.897208" stop-color="#202A66"/>
</linearGradient>
<linearGradient id="paint1_linear_1345:147" x1="1966.86" y1="1300.42" x2="1980.29" y2="-96.1194" gradientUnits="userSpaceOnUse">
<stop stop-color="#1B2357"/>
<stop offset="1" stop-color="#202A66" stop-opacity="0"/>
</linearGradient>
<linearGradient id="paint2_linear_1345:147" x1="2130.73" y1="1050.43" x2="2209.71" y2="-341.751" gradientUnits="userSpaceOnUse">
<stop stop-color="#2C377D"/>
<stop offset="1" stop-color="#202A66" stop-opacity="0"/>
</linearGradient>
<linearGradient id="paint3_linear_1345:147" x1="1953.24" y1="1561.43" x2="2277.1" y2="244.406" gradientUnits="userSpaceOnUse">
<stop stop-color="#25338A"/>
<stop offset="1" stop-color="#202A66" stop-opacity="0"/>
</linearGradient>
<linearGradient id="paint4_linear_1345:147" x1="1953.24" y1="3111.43" x2="2277.1" y2="1794.41" gradientUnits="userSpaceOnUse">
<stop stop-color="#25338A"/>
<stop offset="1" stop-color="#202A66" stop-opacity="0"/>
</linearGradient>
<linearGradient id="paint5_linear_1345:147" x1="2202.24" y1="1437.43" x2="2526.1" y2="120.406" gradientUnits="userSpaceOnUse">
<stop stop-color="#25338A"/>
<stop offset="1" stop-color="#202A66" stop-opacity="0"/>
</linearGradient>
<linearGradient id="paint6_linear_1345:147" x1="2202.24" y1="2987.43" x2="2526.1" y2="1670.41" gradientUnits="userSpaceOnUse">
<stop stop-color="#25338A"/>
<stop offset="1" stop-color="#202A66" stop-opacity="0"/>
</linearGradient>
<linearGradient id="paint7_linear_1345:147" x1="455.646" y1="385.55" x2="442.957" y2="1584.62" gradientUnits="userSpaceOnUse">
<stop stop-color="#1D2661"/>
<stop offset="0.738683" stop-color="#1D2661" stop-opacity="0"/>
</linearGradient>
<linearGradient id="paint8_linear_1345:147" x1="319" y1="840" x2="328.5" y2="897.5" gradientUnits="userSpaceOnUse">
<stop stop-color="#2894F8"/>
<stop offset="1" stop-opacity="0"/>
</linearGradient>
<linearGradient id="paint9_linear_1345:147" x1="357" y1="802" x2="366.5" y2="859.5" gradientUnits="userSpaceOnUse">
<stop stop-color="#2894F8"/>
<stop offset="1" stop-opacity="0"/>
</linearGradient>
<linearGradient id="paint10_linear_1345:147" x1="395" y1="764" x2="404.5" y2="821.5" gradientUnits="userSpaceOnUse">
<stop stop-color="#2894F8"/>
<stop offset="1" stop-opacity="0"/>
</linearGradient>
<linearGradient id="paint11_linear_1345:147" x1="329" y1="1350" x2="381" y2="1664.74" gradientUnits="userSpaceOnUse">
<stop stop-color="#2894F8"/>
<stop offset="1" stop-opacity="0"/>
</linearGradient>
<linearGradient id="paint12_linear_1345:147" x1="2115" y1="844.444" x2="2287.62" y2="3741.58" gradientUnits="userSpaceOnUse">
<stop stop-color="#222C6B"/>
<stop offset="0.897208" stop-color="#202A66"/>
</linearGradient>
<linearGradient id="paint13_linear_1345:147" x1="-618.003" y1="4154.7" x2="-539.025" y2="2762.51" gradientUnits="userSpaceOnUse">
<stop stop-color="#2C377D"/>
<stop offset="1" stop-color="#202A66" stop-opacity="0"/>
</linearGradient>
<linearGradient id="paint14_linear_1345:147" x1="-545.494" y1="3643.7" x2="-221.635" y2="2326.67" gradientUnits="userSpaceOnUse">
<stop stop-color="#25338A"/>
<stop offset="1" stop-color="#202A66" stop-opacity="0"/>
</linearGradient>
<linearGradient id="paint15_linear_1345:147" x1="-794.494" y1="3767.7" x2="-470.635" y2="2450.67" gradientUnits="userSpaceOnUse">
<stop stop-color="#25338A"/>
<stop offset="1" stop-color="#202A66" stop-opacity="0"/>
</linearGradient>
<linearGradient id="paint16_linear_1345:147" x1="720" y1="3213" x2="720" y2="2487" gradientUnits="userSpaceOnUse">
<stop stop-color="#120440"/>
<stop offset="1" stop-color="#222C6B" stop-opacity="0.2"/>
</linearGradient>
<clipPath id="clip0_1345:147">
<rect width="1440" height="3213" fill="white"/>
</clipPath>
</defs>
</svg>
