<svg width="252" height="421" viewBox="0 0 252 421" fill="none" xmlns="http://www.w3.org/2000/svg">
<path d="M35.8256 295.448C64.3582 298.641 89.6042 282.16 104.918 261.699C123.758 236.478 145.269 228.213 165.127 222.497C165.149 222.484 165.174 222.476 165.2 222.473C143.263 241.289 120.662 255.984 117.471 286.899C112.539 334.65 137.834 350.966 131.213 371.901C124.591 392.837 106.394 381.809 103.132 373.306C98.5592 361.422 108.396 353.967 103.727 352.943C99.2496 351.971 92.3915 356.346 89.6042 364.374C87.9367 369.138 87.7228 375.232 90.2946 382.237C97.1786 400.886 125.925 409.031 141.764 395.099C151.362 386.643 161.079 376.163 150.361 336.367C140.286 299.022 159.721 266.226 199.067 256.746C203.663 256.652 209.069 258.366 208.189 267.279C206.045 288.809 196.113 301.098 186.038 318.15C173.536 339.3 169.295 365.523 170.915 383.362C172.225 397.818 181.3 412.252 194.875 417.919C211.07 424.725 232.696 420.063 241.175 401.915C245.937 391.722 243.032 386.911 240.436 390.197C229.267 404.344 199.829 408.107 193.494 387.291C187.174 366.571 201.995 343.325 216.238 329.726C228.194 318.342 246.153 295.549 252.488 277.662C258.824 295.549 276.781 318.337 288.737 329.726C302.975 343.32 317.796 366.562 311.476 387.287C305.14 408.102 275.703 404.339 264.533 390.192C261.94 386.906 259.031 391.717 263.794 401.91C272.273 420.06 293.898 424.727 310.094 417.914C323.671 412.243 332.744 397.82 334.055 383.357C335.675 365.518 331.435 339.295 318.931 318.145C308.856 301.093 298.924 288.804 296.781 267.274C295.9 258.361 301.306 256.652 305.903 256.741C345.248 266.221 364.683 299.017 354.608 336.362C343.887 376.163 353.61 386.643 363.208 395.099C379.045 409.036 407.793 400.886 414.676 382.237C417.249 375.235 417.034 369.138 415.366 364.374C412.58 356.348 405.721 351.966 401.243 352.943C396.575 353.967 406.411 361.422 401.838 373.306C398.576 381.809 380.379 392.86 373.759 371.901C367.139 350.943 392.431 334.65 387.501 286.899C384.31 255.984 361.712 241.296 339.772 222.473C339.797 222.476 339.822 222.484 339.843 222.497C359.706 228.213 381.214 236.478 400.052 261.699C415.366 282.159 440.612 298.647 469.145 295.448C499.703 292.018 511.111 254.675 501.823 231.143C499.487 225.26 496.416 221.021 493.034 218.116C481.41 208.068 466.192 213.589 465.239 220.87C464.739 224.8 472.384 218.513 480.125 226.277C489.848 236.017 490.105 255.237 478.124 264.432C463.478 275.72 443.233 263.312 432.015 252.356C416.324 237.05 407.46 216.09 390.882 201.562C388.063 199.106 385.062 196.868 381.902 194.869C398.004 191.035 413.391 185.415 426.209 177.123C450.211 161.645 471.622 136.709 468.526 104.627C467.096 90.0993 461.405 81.5965 454.307 76.8337C449.932 73.9038 445.043 72.3562 440.256 71.6886C439.804 71.6173 439.327 71.5703 438.873 71.5265C425.18 70.4068 410.722 81.2497 414.271 96.1779C418.178 94.8442 420.226 90.5806 423.535 88.2698C433.349 81.3874 443.972 86.1031 446.114 97.2961C451.235 124.091 431.49 142.358 409.078 151.956C390.407 159.96 372.779 157.126 345.63 149.718C324.434 143.93 313.192 143.398 299.546 143.026C300.474 142.429 301.403 141.81 302.26 141.144C318.051 128.925 323.457 107.658 310.311 97.7968L310.334 97.7725C310.364 97.7464 310.388 97.7144 310.405 97.6785C312.568 94.6491 314.45 91.4281 316.027 88.0559C316.067 87.9975 316.1 87.9337 316.122 87.8663C318.598 82.5542 320.934 75.5989 320.934 68.2579C320.934 24.3645 290.495 0 252.489 0C236.723 0 222.267 4.19229 210.715 12.2657C194.447 23.5786 184.04 42.584 184.04 68.2596C184.04 83.93 194.663 97.7919 194.663 97.7919C194.633 97.8185 194.601 97.8423 194.567 97.8632C181.54 107.748 186.97 128.945 202.712 141.139C203.569 141.805 204.494 142.424 205.428 143.021C191.78 143.401 180.538 143.925 159.342 149.713C132.19 157.121 114.565 159.955 95.8935 151.951C78.9525 144.712 63.5365 132.494 59.2324 115.417C57.8274 109.891 57.5892 103.841 58.8516 97.2912C60.9956 86.0983 71.6181 81.3825 81.4303 88.2649C84.741 90.5758 86.7894 94.8393 90.6949 96.173C94.2438 81.2399 79.7871 70.4068 66.0921 71.5217C65.64 71.5703 65.1635 71.6173 64.7114 71.6837C59.9228 72.3514 55.0418 73.899 50.6583 76.8289C43.562 81.5916 37.8691 90.0945 36.4398 104.622C33.3446 136.709 54.7517 161.64 78.7629 177.121C91.5764 185.41 106.96 191.03 123.061 194.864C119.903 196.863 116.901 199.101 114.084 201.557C97.5059 216.085 88.6417 237.047 72.9518 252.359C61.7329 263.315 41.4894 275.723 26.8415 264.435C14.8626 255.24 15.1235 236.021 24.8417 226.28C32.5814 218.516 40.227 224.803 39.7262 220.874C38.7734 213.581 23.5551 208.06 11.9327 218.119C8.55066 221.024 5.47815 225.264 3.14462 231.146C-6.14584 254.675 5.26425 292.018 35.8256 295.448Z" fill="url(#paint0_linear_1302:169)"/>
<defs>
<linearGradient id="paint0_linear_1302:169" x1="262.93" y1="329.779" x2="218.372" y2="-15.7774" gradientUnits="userSpaceOnUse">
<stop stop-color="#49007B"/>
<stop offset="0.19" stop-color="#660086"/>
<stop offset="0.6" stop-color="#B000A3"/>
<stop offset="1" stop-color="#FF00C1"/>
</linearGradient>
</defs>
</svg>
