<svg width="375" height="162" viewBox="0 0 375 162" fill="none" xmlns="http://www.w3.org/2000/svg">
<path d="M21.5522 227.627C43.5349 230.087 62.9857 217.389 74.7842 201.625C89.2995 182.193 105.872 175.826 121.172 171.422C121.189 171.412 121.208 171.406 121.228 171.404C104.327 185.9 86.9136 197.222 84.4553 221.04C80.656 257.83 100.144 270.4 95.0427 286.53C89.9413 302.66 75.9216 294.163 73.4083 287.612C69.885 278.456 77.4635 272.712 73.8665 271.923C70.4168 271.174 65.1331 274.545 62.9857 280.73C61.7009 284.401 61.5361 289.096 63.5175 294.493C68.8213 308.861 90.9688 315.136 103.172 304.403C110.567 297.888 118.053 289.814 109.795 259.152C102.033 230.38 117.007 205.112 147.321 197.809C150.862 197.736 155.027 199.057 154.349 205.924C152.697 222.512 145.045 231.979 137.283 245.118C127.65 261.412 124.383 281.616 125.632 295.359C126.64 306.498 133.632 317.618 144.091 321.984C156.569 327.228 173.23 323.636 179.763 309.654C183.432 301.801 181.193 298.094 179.193 300.626C170.588 311.525 147.908 314.424 143.027 298.387C138.158 282.423 149.577 264.513 160.55 254.036C169.762 245.265 183.598 227.704 188.478 213.923C193.36 227.704 207.195 245.261 216.407 254.036C227.376 264.51 238.795 282.416 233.926 298.383C229.044 314.421 206.365 311.522 197.759 300.622C195.761 298.09 193.52 301.797 197.189 309.65C203.722 323.633 220.383 327.229 232.861 321.98C243.321 317.611 250.312 306.499 251.322 295.356C252.57 281.612 249.303 261.408 239.669 245.114C231.907 231.976 224.255 222.508 222.604 205.92C221.925 199.053 226.09 197.736 229.632 197.805C259.945 205.109 274.919 230.376 267.157 259.148C258.896 289.813 266.388 297.888 273.783 304.403C285.984 315.14 308.133 308.861 313.436 294.493C315.418 289.098 315.252 284.401 313.968 280.73C311.821 274.547 306.536 271.171 303.087 271.923C299.49 272.712 307.068 278.456 303.545 287.612C301.032 294.163 287.012 302.677 281.912 286.53C276.811 270.383 296.297 257.83 292.499 221.04C290.041 197.222 272.63 185.905 255.726 171.404C255.746 171.406 255.765 171.412 255.781 171.422C271.085 175.826 287.655 182.193 302.169 201.625C313.968 217.388 333.418 230.092 355.401 227.627C378.944 224.984 387.734 196.213 380.577 178.083C378.778 173.551 376.412 170.285 373.807 168.046C364.851 160.305 353.126 164.559 352.392 170.169C352.006 173.196 357.897 168.352 363.861 174.334C371.352 181.839 371.549 196.646 362.319 203.73C351.035 212.428 335.437 202.868 326.795 194.426C314.705 182.634 307.876 166.486 295.104 155.293C292.932 153.4 290.62 151.676 288.186 150.136C300.591 147.182 312.446 142.852 322.321 136.464C340.813 124.539 357.31 105.327 354.924 80.6097C353.823 69.4167 349.438 62.8657 343.97 59.1962C340.599 56.9389 336.832 55.7466 333.144 55.2322C332.795 55.1772 332.428 55.141 332.079 55.1073C321.529 54.2446 310.389 62.5985 313.124 74.0999C316.134 73.0723 317.712 69.7875 320.261 68.0071C327.822 62.7046 336.006 66.3378 337.657 74.9613C341.602 95.6057 326.39 109.679 309.123 117.074C294.738 123.241 281.156 121.057 260.24 115.35C243.909 110.89 235.248 110.481 224.734 110.193C225.45 109.734 226.165 109.257 226.826 108.744C238.991 99.33 243.156 82.9444 233.028 75.3471L233.046 75.3284C233.069 75.3083 233.088 75.2836 233.101 75.256C234.767 72.922 236.217 70.4404 237.432 67.8423C237.463 67.7973 237.488 67.7482 237.505 67.6962C239.413 63.6035 241.212 58.2449 241.212 52.5891C241.212 18.7716 217.761 0 188.48 0C176.333 0 165.195 3.22993 156.295 9.45007C143.761 18.166 135.743 32.8087 135.743 52.5903C135.743 64.6635 143.927 75.3434 143.927 75.3434C143.904 75.3638 143.88 75.3822 143.854 75.3983C133.817 83.0143 138.001 99.345 150.129 108.74C150.789 109.253 151.502 109.73 152.221 110.19C141.706 110.483 133.045 110.886 116.715 115.346C95.7956 121.053 82.2166 123.237 67.8311 117.07C54.7791 111.493 42.9019 102.079 39.5858 88.9223C38.5033 84.6649 38.3198 80.0041 39.2924 74.9576C40.9442 66.3341 49.1283 62.7008 56.6881 68.0033C59.2388 69.7837 60.817 73.0686 63.8259 74.0961C66.5602 62.591 55.4221 54.2446 44.8708 55.1036C44.5225 55.141 44.1554 55.1772 43.8071 55.2284C40.1177 55.7428 36.3571 56.9352 32.9799 59.1925C27.5126 62.8619 23.1265 69.4129 22.0253 80.6059C19.6407 105.327 36.1336 124.535 54.633 136.462C64.5051 142.849 76.3573 147.178 88.7627 150.132C86.329 151.673 84.0167 153.396 81.8458 155.289C69.0734 166.482 62.244 182.632 50.1558 194.429C41.5123 202.87 25.9157 212.43 14.6303 203.733C5.40125 196.649 5.60226 181.841 13.0897 174.336C19.0526 168.355 24.9431 173.199 24.5573 170.171C23.8232 164.553 12.0983 160.299 3.14392 168.049C0.538239 170.287 -1.82895 173.553 -3.62683 178.086C-10.7846 196.213 -1.99377 224.984 21.5522 227.627Z" fill="url(#paint0_linear_1307:406)"/>
<path style="mix-blend-mode:overlay" d="M188.475 77.42C169.726 77.42 154.527 62.2212 154.527 43.4726C154.527 24.724 169.726 9.52527 188.475 9.52527C207.223 9.52527 222.422 24.724 222.422 43.4726C222.422 62.2212 207.223 77.42 188.475 77.42Z" fill="url(#paint1_radial_1307:406)"/>
<path style="mix-blend-mode:multiply" d="M152.266 91.6593C149.038 96.2402 151.296 107.747 160.609 109.104C167.194 110.064 177.067 100.878 176.715 96.5098C176.509 93.9866 172.771 92.9116 166.432 90.884C162.575 89.6517 155.681 86.8138 152.266 91.6593Z" fill="url(#paint2_linear_1307:406)"/>
<path style="mix-blend-mode:multiply" d="M221.097 91.6593C224.325 96.2402 222.065 107.748 212.755 109.104C206.17 110.064 196.295 100.878 196.649 96.5098C196.855 93.9866 200.593 92.9116 206.931 90.884C210.788 89.6517 217.682 86.8138 221.097 91.6593Z" fill="url(#paint3_linear_1307:406)"/>
<path d="M153.924 88.5955C151.641 91.5407 155.716 95.7558 159.731 97.3626C165.831 99.8047 173.746 99.3303 176.141 97.4812C178.457 95.6946 172.113 90.5407 166.014 88.0986C162.306 86.6153 156.34 85.4792 153.924 88.5955Z" fill="white"/>
<path d="M219.277 88.5955C221.562 91.5407 217.485 95.7558 213.47 97.3626C207.371 99.8047 199.457 99.3303 197.061 97.4812C194.746 95.6946 201.089 90.5407 207.189 88.0986C210.897 86.6153 216.861 85.4792 219.277 88.5955Z" fill="white"/>
<path style="mix-blend-mode:multiply" d="M21.5522 227.627C43.5349 230.087 62.9857 217.389 74.7842 201.625C89.2995 182.193 105.872 175.826 121.172 171.422C121.189 171.412 121.208 171.406 121.228 171.404C121.228 171.404 112.516 160.916 92.7305 172.175C59.7345 190.945 57.0227 215.624 32.1946 217.957C7.36644 220.291 -3.62307 208.085 -2.33959 184.983C-1.93507 177.936 0.138756 172.431 3.1477 168.046C0.542023 170.285 -1.82517 173.551 -3.62305 178.083C-10.7846 196.213 -1.99374 224.984 21.5522 227.627Z" fill="url(#paint4_linear_1307:406)"/>
<g style="mix-blend-mode:multiply">
<path d="M54.6382 136.464C64.5103 142.85 76.3625 147.18 88.7679 150.134C93.5048 146.366 107.946 145.118 107.946 145.118C107.946 145.118 104.825 139.799 96.9969 141.128C86.714 142.876 83.755 141.171 75.6471 138.023C59.3339 131.691 31.131 111.637 28.0297 89.1397C26.0483 74.8091 29.0572 65.8173 32.9838 59.1938C27.5166 62.8633 23.1305 69.4143 22.0293 80.6073C19.6409 105.327 36.1364 124.539 54.6382 136.464Z" fill="url(#paint5_linear_1307:406)"/>
</g>
<path style="mix-blend-mode:multiply" d="M355.401 227.627C333.418 230.087 313.968 217.389 302.169 201.625C287.655 182.193 271.081 175.826 255.781 171.422C255.765 171.412 255.746 171.406 255.726 171.404C255.726 171.404 264.439 160.916 284.223 172.175C317.219 190.945 319.93 215.624 344.759 217.957C369.587 220.291 380.577 208.085 379.293 184.983C378.889 177.936 376.816 172.431 373.807 168.046C376.412 170.285 378.778 173.551 380.577 178.083C387.734 196.213 378.944 224.984 355.401 227.627Z" fill="url(#paint6_linear_1307:406)"/>
<path style="mix-blend-mode:multiply" d="M322.322 136.464C312.449 142.85 300.597 147.18 288.191 150.134C283.455 146.366 268.704 145.015 268.704 145.015C268.704 145.015 272.133 139.799 279.963 141.128C290.244 142.876 293.197 141.171 301.313 138.023C317.62 131.693 345.824 111.639 348.924 89.1448C350.906 74.8143 347.896 65.8224 343.97 59.199C349.438 62.8684 353.823 69.4194 354.924 80.6124C357.31 105.327 340.813 124.539 322.322 136.464Z" fill="url(#paint7_linear_1307:406)"/>
<path style="mix-blend-mode:overlay" d="M40.3386 95.7306C54.3096 121.343 73.2997 137.837 110.177 123.089C130.548 114.94 152.216 110.19 152.216 110.19C141.701 110.483 133.04 110.886 116.71 115.346C95.7905 121.053 82.2116 123.237 67.8261 117.07C54.779 111.493 42.9018 102.079 39.5858 88.9224C39.3298 90.7577 38.9752 93.2323 40.3386 95.7306Z" fill="url(#paint8_linear_1307:406)"/>
<g style="mix-blend-mode:overlay">
<path d="M336.612 95.7306C322.64 121.343 303.651 137.837 266.774 123.089C246.396 114.94 224.735 110.19 224.735 110.19C235.248 110.483 243.909 110.886 260.24 115.346C281.159 121.053 294.738 123.237 309.125 117.07C322.171 111.493 334.043 102.079 337.364 88.9224C337.621 90.7577 337.974 93.2323 336.612 95.7306Z" fill="#C4C4C4"/>
</g>
<path style="mix-blend-mode:overlay" d="M135.738 52.5906C135.738 64.6638 143.922 75.3437 143.922 75.3437C148.602 75.3624 153.244 74.2062 158.491 77.1053C158.491 77.1053 135.04 63.7286 141.426 33.4519C143.61 23.1029 151.592 15.2672 156.284 9.45032C143.756 18.1663 135.738 32.8089 135.738 52.5906Z" fill="url(#paint9_linear_1307:406)"/>
<path style="mix-blend-mode:overlay" d="M241.285 52.4981C241.285 64.5726 233.101 75.2525 233.101 75.2525C228.422 75.2699 223.779 74.1151 218.532 77.0141C218.532 77.0141 241.983 63.6362 235.596 33.3595C233.413 23.0105 225.431 15.176 220.739 9.35913C233.267 18.0751 241.285 32.7178 241.285 52.4981Z" fill="url(#paint10_linear_1307:406)"/>
<defs>
<linearGradient id="paint0_linear_1307:406" x1="196.524" y1="254.077" x2="162.195" y2="-12.1556" gradientUnits="userSpaceOnUse">
<stop stop-color="#49007B"/>
<stop offset="0.19" stop-color="#660086"/>
<stop offset="0.6" stop-color="#B000A3"/>
<stop offset="1" stop-color="#FF00C1"/>
</linearGradient>
<radialGradient id="paint1_radial_1307:406" cx="0" cy="0" r="1" gradientUnits="userSpaceOnUse" gradientTransform="translate(159.118 30.8046) rotate(154.58) scale(79.5047 39.7524)">
<stop stop-color="white"/>
<stop offset="1" stop-color="white" stop-opacity="0"/>
</radialGradient>
<linearGradient id="paint2_linear_1307:406" x1="176.612" y1="95.1547" x2="151.17" y2="91.0987" gradientUnits="userSpaceOnUse">
<stop stop-color="#515D8B"/>
<stop offset="1" stop-color="white" stop-opacity="0"/>
</linearGradient>
<linearGradient id="paint3_linear_1307:406" x1="196.608" y1="99.7009" x2="221.108" y2="105.94" gradientUnits="userSpaceOnUse">
<stop stop-color="#515D8B"/>
<stop offset="1" stop-color="white" stop-opacity="0"/>
</linearGradient>
<linearGradient id="paint4_linear_1307:406" x1="-299334" y1="74244.7" x2="-364867" y2="170390" gradientUnits="userSpaceOnUse">
<stop stop-color="#515D8B"/>
<stop offset="1" stop-color="white" stop-opacity="0"/>
</linearGradient>
<linearGradient id="paint5_linear_1307:406" x1="45.5198" y1="135.347" x2="-0.0783885" y2="35.8272" gradientUnits="userSpaceOnUse">
<stop stop-color="#515D8B"/>
<stop offset="1" stop-color="white" stop-opacity="0"/>
</linearGradient>
<linearGradient id="paint6_linear_1307:406" x1="-144165" y1="74244.7" x2="-78630.7" y2="170389" gradientUnits="userSpaceOnUse">
<stop stop-color="#515D8B"/>
<stop offset="1" stop-color="white" stop-opacity="0"/>
</linearGradient>
<linearGradient id="paint7_linear_1307:406" x1="-82259.9" y1="95480.9" x2="-74436.8" y2="37798.5" gradientUnits="userSpaceOnUse">
<stop stop-color="#515D8B"/>
<stop offset="1" stop-color="white" stop-opacity="0"/>
</linearGradient>
<linearGradient id="paint8_linear_1307:406" x1="-208484" y1="34699.7" x2="-310524" y2="34699.7" gradientUnits="userSpaceOnUse">
<stop stop-color="white"/>
<stop offset="1" stop-color="white" stop-opacity="0"/>
</linearGradient>
<linearGradient id="paint9_linear_1307:406" x1="-45451" y1="8371.61" x2="-24946.9" y2="19098.2" gradientUnits="userSpaceOnUse">
<stop stop-color="white"/>
<stop offset="1" stop-color="white" stop-opacity="0"/>
</linearGradient>
<linearGradient id="paint10_linear_1307:406" x1="-34567.8" y1="8321.45" x2="-55071.9" y2="19048.4" gradientUnits="userSpaceOnUse">
<stop stop-color="white"/>
<stop offset="1" stop-color="white" stop-opacity="0"/>
</linearGradient>
</defs>
</svg>
